<svg xmlns="http://www.w3.org/2000/svg" viewBox="0 0 291.21 66.5"><g id="Layer_2" data-name="Layer 2"><g id="Layer_1-2" data-name="Layer 1"><path d="M3.71,15.15H17.82a24.87,24.87,0,0,1,5.28.54,12.5,12.5,0,0,1,4.38,1.81,8.9,8.9,0,0,1,3,3.4,11.47,11.47,0,0,1,1.11,5.33,10.73,10.73,0,0,1-2,6.57,9.06,9.06,0,0,1-5.87,3.42L33,51.62H23.34L15.71,37.05h-4V51.62h-8Zm8,15.1h4.73c.73,0,1.49,0,2.3-.08A7.47,7.47,0,0,0,21,29.71a3.83,3.83,0,0,0,1.62-1.22,3.65,3.65,0,0,0,.64-2.31A3.92,3.92,0,0,0,22.67,24a3.75,3.75,0,0,0-1.45-1.26,6.31,6.31,0,0,0-2-.59A15.23,15.23,0,0,0,17,22H11.75Z" transform="translate(-3.71)" fill="#fff5e6"/><path d="M59.81,47.3A12.25,12.25,0,0,1,55.12,51a14,14,0,0,1-5.87,1.29,15.74,15.74,0,0,1-5.44-.93,13,13,0,0,1-4.43-2.65,12.43,12.43,0,0,1-3-4.15,14.07,14.07,0,0,1,0-10.81,12.43,12.43,0,0,1,3-4.15,13.17,13.17,0,0,1,4.43-2.65A15.74,15.74,0,0,1,49.25,26a12.36,12.36,0,0,1,4.87.93,10.18,10.18,0,0,1,3.7,2.65,12,12,0,0,1,2.35,4.15A16.66,16.66,0,0,1,61,39.11v2.42H43.07a6.09,6.09,0,0,0,2,3.53,6.36,6.36,0,0,0,7,.46,8.8,8.8,0,0,0,2.29-2.19Zm-6.54-11A4.52,4.52,0,0,0,52,32.92a4.63,4.63,0,0,0-3.45-1.39,5.71,5.71,0,0,0-2.27.42A5.52,5.52,0,0,0,44.59,33a4.59,4.59,0,0,0-1.09,1.5,4.94,4.94,0,0,0-.43,1.77Z" transform="translate(-3.71)" fill="#fff5e6"/><path d="M82.63,34.68A4.33,4.33,0,0,0,81,33.31a4.69,4.69,0,0,0-2.21-.54,5.89,5.89,0,0,0-4.56,1.75,6.51,6.51,0,0,0-1.63,4.59,6.48,6.48,0,0,0,1.63,4.58,5.89,5.89,0,0,0,4.56,1.75A4.24,4.24,0,0,0,81,44.88a7,7,0,0,0,1.6-1.34l5.1,5.35a9.85,9.85,0,0,1-4.25,2.61,16.24,16.24,0,0,1-4.66.74,15.74,15.74,0,0,1-5.44-.93A12.92,12.92,0,0,1,69,48.66a12.43,12.43,0,0,1-3-4.15A14.07,14.07,0,0,1,66,33.7a12.43,12.43,0,0,1,3-4.15,13.08,13.08,0,0,1,4.43-2.65A15.74,15.74,0,0,1,78.82,26a15.93,15.93,0,0,1,4.66.75,9.74,9.74,0,0,1,4.25,2.6Z" transform="translate(-3.71)" fill="#fff5e6"/><path d="M90,18.71a4.49,4.49,0,1,1,7.65,3.17A4.49,4.49,0,0,1,90,18.71Zm.62,7.88h7.73v25H90.61Z" transform="translate(-3.71)" fill="#fff5e6"/><path d="M104.62,26.59h7.11v3.29h.11a8.58,8.58,0,0,1,1.21-1.36,9.13,9.13,0,0,1,1.75-1.26,10.77,10.77,0,0,1,2.19-.93,8.62,8.62,0,0,1,2.52-.36,13,13,0,0,1,5,1,11.33,11.33,0,0,1,3.89,2.68,12.09,12.09,0,0,1,2.5,4.1,15,15,0,0,1,.87,5.2,15.8,15.8,0,0,1-.79,5,13.86,13.86,0,0,1-2.27,4.25,10.91,10.91,0,0,1-3.58,3,10.16,10.16,0,0,1-4.79,1.11,13.46,13.46,0,0,1-4.51-.74A7.29,7.29,0,0,1,112.45,49h-.1V63.37h-7.73Zm7.11,12.52a6.44,6.44,0,0,0,1.63,4.58,6.8,6.8,0,0,0,9.11,0,6.44,6.44,0,0,0,1.63-4.58,6.46,6.46,0,0,0-1.63-4.59,6.8,6.8,0,0,0-9.11,0A6.46,6.46,0,0,0,111.73,39.11Z" transform="translate(-3.71)" fill="#fff5e6"/><path d="M160.05,47.3A12.22,12.22,0,0,1,155.37,51a14,14,0,0,1-5.88,1.29,15.72,15.72,0,0,1-5.43-.93,12.92,12.92,0,0,1-4.43-2.65,12.29,12.29,0,0,1-3-4.15,13.95,13.95,0,0,1,0-10.81,12.29,12.29,0,0,1,3-4.15,13.08,13.08,0,0,1,4.43-2.65,15.72,15.72,0,0,1,5.43-.93,12.33,12.33,0,0,1,4.87.93,10.13,10.13,0,0,1,3.71,2.65,12.09,12.09,0,0,1,2.34,4.15,16.65,16.65,0,0,1,.83,5.41v2.42H143.31a6.16,6.16,0,0,0,2,3.53,5.71,5.71,0,0,0,3.81,1.31,5.77,5.77,0,0,0,3.22-.85,8.65,8.65,0,0,0,2.29-2.19Zm-6.54-11a4.48,4.48,0,0,0-1.29-3.35,4.59,4.59,0,0,0-3.45-1.39,5.66,5.66,0,0,0-2.26.42A5.45,5.45,0,0,0,144.83,33a4.71,4.71,0,0,0-1.08,1.5,5,5,0,0,0-.44,1.77Z" transform="translate(-3.71)" fill="#fff5e6"/><path d="M183.44,15.15H194a25.86,25.86,0,0,1,4.17.34,9.8,9.8,0,0,1,3.79,1.39,8.13,8.13,0,0,1,2.73,2.93,10.2,10.2,0,0,1,1.05,5,7.56,7.56,0,0,1-1.64,4.84,8.14,8.14,0,0,1-4.9,2.73v.1a9.78,9.78,0,0,1,3.3.85,8.13,8.13,0,0,1,4.25,4.61,10.12,10.12,0,0,1,.59,3.5,9.69,9.69,0,0,1-1.21,5.13,9.37,9.37,0,0,1-3,3.12,11.67,11.67,0,0,1-4,1.54,20.81,20.81,0,0,1-4,.41H183.44Zm3.4,15.77h7.06a11.87,11.87,0,0,0,4.27-.65,7.42,7.42,0,0,0,2.58-1.57,4.73,4.73,0,0,0,1.24-2,7.16,7.16,0,0,0,.3-1.93,6.91,6.91,0,0,0-.64-3.17,5.3,5.3,0,0,0-1.73-2,7,7,0,0,0-2.52-1.06,14.85,14.85,0,0,0-3-.31h-7.52Zm0,17.61h7.78a13.41,13.41,0,0,0,4.82-.72,7.37,7.37,0,0,0,2.8-1.8,5.83,5.83,0,0,0,1.32-2.29,8.44,8.44,0,0,0,.33-2.19,7.26,7.26,0,0,0-.77-3.45,6.89,6.89,0,0,0-2-2.35,8.16,8.16,0,0,0-2.81-1.31,12.2,12.2,0,0,0-3.17-.41h-8.29Z" transform="translate(-3.71)" fill="#fff5e6"/><path d="M213.52,33.39a20.61,20.61,0,0,1,1.4-7.68,18.17,18.17,0,0,1,3.86-6.05,17.5,17.5,0,0,1,5.95-4,20.91,20.91,0,0,1,15.3,0,17.5,17.5,0,0,1,5.95,4,18.32,18.32,0,0,1,3.86,6.05,20.61,20.61,0,0,1,1.39,7.68,20.75,20.75,0,0,1-1.39,7.7A18.25,18.25,0,0,1,246,47.17a17.15,17.15,0,0,1-5.95,4,21.32,21.32,0,0,1-15.3,0,17.15,17.15,0,0,1-5.95-4,18.1,18.1,0,0,1-3.86-6.08A20.76,20.76,0,0,1,213.52,33.39Zm3.4,0A17.91,17.91,0,0,0,218,39.72a15,15,0,0,0,3.09,5.1,14.16,14.16,0,0,0,4.86,3.4,17.21,17.21,0,0,0,12.83,0,14.11,14.11,0,0,0,4.87-3.4,15,15,0,0,0,3.09-5.1,19.12,19.12,0,0,0,0-12.67,15,15,0,0,0-3.09-5.1,14.38,14.38,0,0,0-4.87-3.4,17.34,17.34,0,0,0-12.83,0A14.44,14.44,0,0,0,221.1,22a15,15,0,0,0-3.09,5.1A18,18,0,0,0,216.92,33.39Z" transform="translate(-3.71)" fill="#fff5e6"/><path d="M267.61,32.46,255.15,15.15h4L269.67,30,280,15.15h4.07L271.74,32.46l13.54,19.16h-4.22L269.52,35.14,258,51.62h-4.07Z" transform="translate(-3.71)" fill="#fff5e6"/><rect x="166.6" y="0.42" width="124.19" height="65.67" fill="none" stroke="#fff5e6" stroke-miterlimit="10" stroke-width="0.83"/></g></g></svg>